<svg xmlns="http://www.w3.org/2000/svg" xmlns:xlink="http://www.w3.org/1999/xlink" width="4" height="16" version="1.1" viewBox="0 0 4 16"><title>Group 7</title><desc>Created with Sketch.</desc><g id="Page-1" fill="none" fill-rule="evenodd" stroke="none" stroke-linecap="round" stroke-linejoin="round" stroke-width="1"><g id="Catalog-Master" stroke="#444" transform="translate(-659.000000, -266.000000)"><g id="Group-7" transform="translate(661.000000, 274.000000) rotate(90.000000) translate(-661.000000, -274.000000) translate(653.000000, 272.000000)"><path id="Stroke-1" d="M8,0.5 C8.829,0.5 9.5,1.171 9.5,2 C9.5,2.829 8.829,3.5 8,3.5 C7.171,3.5 6.5,2.829 6.5,2 C6.5,1.171 7.171,0.5 8,0.5 Z"/><path id="Stroke-3" d="M14,0.5 C14.828,0.5 15.5,1.171 15.5,2 C15.5,2.829 14.828,3.5 14,3.5 C13.172,3.5 12.5,2.829 12.5,2 C12.5,1.171 13.172,0.5 14,0.5 Z"/><path id="Stroke-5" d="M2,0.5 C2.829,0.5 3.5,1.171 3.5,2 C3.5,2.829 2.829,3.5 2,3.5 C1.171,3.5 0.5,2.829 0.5,2 C0.5,1.171 1.171,0.5 2,0.5 Z"/></g></g></g></svg>